<svg xmlns="http://www.w3.org/2000/svg" xmlns:xlink="http://www.w3.org/1999/xlink" width="64" height="72" viewBox="0 0 64 72">
  <defs>
    <linearGradient id="linear-gradient" y1="0.5" x2="1" y2="0.5" gradientUnits="objectBoundingBox">
      <stop offset="0"/>
      <stop offset="0.591" stop-color="#8f1537"/>
      <stop offset="1" stop-color="#8f1537"/>
    </linearGradient>
    <clipPath id="clip-QCB_Homepage_1.1_-_AR_7">
      <rect width="64" height="72"/>
    </clipPath>
  </defs>
  <g id="QCB_Homepage_1.1_-_AR_7" data-name="QCB | Homepage – 1.1 - AR – 7" clip-path="url(#clip-QCB_Homepage_1.1_-_AR_7)">
    <rect width="64" height="72" fill="#fff"/>
    <path id="left" d="M43.188,21.594a21.509,21.509,0,0,1-3.659,11.988,1.687,1.687,0,0,1-2.8-1.875,18.1,18.1,0,1,0-5.7,5.484,1.687,1.687,0,0,1,1.748,2.886A21.6,21.6,0,1,1,43.188,21.594Zm-9.447,0a1.687,1.687,0,0,0-1.687-1.687H14.577l6.1-6.057A1.687,1.687,0,0,0,18.3,11.456L11.7,18.01a5.048,5.048,0,0,0,0,7.168l6.6,6.554a1.687,1.687,0,1,0,2.378-2.393l-6.1-6.057H32.053A1.687,1.687,0,0,0,33.74,21.594Zm0,0" transform="translate(11 15.29)" fill="url(#linear-gradient)"/>
  </g>
</svg>
