<?xml version="1.0" encoding="utf-8"?>
<!-- Generator: Adobe Illustrator 22.0.0, SVG Export Plug-In . SVG Version: 6.00 Build 0)  -->
<svg version="1.1" id="Layer_1" xmlns="http://www.w3.org/2000/svg" xmlns:xlink="http://www.w3.org/1999/xlink" x="0px" y="0px"
	 viewBox="0 0 64 72" style="enable-background:new 0 0 64 72;" xml:space="preserve">
<style type="text/css">
	.st0{clip-path:url(#SVGID_2_);}
	.st1{fill:#8F1537;}
</style>
<g>
	<defs>
		<rect id="SVGID_1_" width="64" height="72"/>
	</defs>
	<clipPath id="SVGID_2_">
		<use xlink:href="#SVGID_1_"  style="overflow:visible;"/>
	</clipPath>
	<g id="QCB_Homepage_1.1_-_AR_6" class="st0">
		<g id="loupe" transform="translate(9.833 13.833)">
			<g id="Group_3">
				<g id="Group_2">
					<path id="Path_2" class="st1" d="M18.4,0C8.2,0,0,8.2,0,18.4s8.2,18.4,18.4,18.4s18.4-8.2,18.4-18.4l0,0
						C36.7,8.2,28.5,0,18.4,0z M18.4,33.4c-8.3,0-15-6.7-15-15s6.7-15,15-15s15,6.7,15,15c0,0,0,0,0,0
						C33.4,26.6,26.6,33.4,18.4,33.4z"/>
				</g>
			</g>
			<g id="Group_5" transform="translate(24.345 24.345)">
				<g id="Group_4">
					<path id="Path_3" class="st1" d="M19.2,15.6L4.4,0.8c-1-1-2.6-1-3.7,0s-1,2.6,0,3.7l0,0l14.8,14.8c1,1,2.6,1,3.7,0
						S20.2,16.6,19.2,15.6L19.2,15.6L19.2,15.6z"/>
				</g>
			</g>
		</g>
	</g>
</g>
</svg>
