<?xml version="1.0" encoding="utf-8"?>
<!-- Generator: Adobe Illustrator 22.0.0, SVG Export Plug-In . SVG Version: 6.00 Build 0)  -->
<svg version="1.1" id="Layer_1" xmlns="http://www.w3.org/2000/svg" xmlns:xlink="http://www.w3.org/1999/xlink" x="0px" y="0px"
	 viewBox="0 0 64 72" style="enable-background:new 0 0 64 72;" xml:space="preserve">
<style type="text/css">
	.st0{fill:#AD9E70;}
</style>
<g>
	<g id="QCB_Homepage_1.1_-_AR_3">
		<g id="Page-1" transform="translate(6 6)">
			<g id="_127---Stamped-File">
				<path id="Shape" class="st0" d="M29,6h6c0.6,0,1-0.4,1-1s-0.4-1-1-1h-6c-0.6,0-1,0.4-1,1S28.4,6,29,6z"/>
				<path id="Shape-2" class="st0" d="M39,6h2c0.6,0,1-0.4,1-1s-0.4-1-1-1h-2c-0.6,0-1,0.4-1,1S38.4,6,39,6z"/>
				<path id="Shape-3" class="st0" d="M8,20h2c0.6,0,1-0.4,1-1s-0.4-1-1-1H8c-0.6,0-1,0.4-1,1S7.4,20,8,20z"/>
				<path id="Shape-4" class="st0" d="M14,20h19c0.6,0,1-0.4,1-1s-0.4-1-1-1H14c-0.6,0-1,0.4-1,1S13.4,20,14,20z"/>
				<path id="Shape-5" class="st0" d="M8,28h4c0.6,0,1-0.4,1-1s-0.4-1-1-1H8c-0.6,0-1,0.4-1,1S7.4,28,8,28z"/>
				<path id="Shape-6" class="st0" d="M33,26H16c-0.6,0-1,0.4-1,1s0.4,1,1,1h17c0.6,0,1-0.4,1-1S33.6,26,33,26z"/>
				<path id="Shape-7" class="st0" d="M8,24h8c0.6,0,1-0.4,1-1s-0.4-1-1-1H8c-0.6,0-1,0.4-1,1S7.4,24,8,24z"/>
				<path id="Shape-8" class="st0" d="M25,24c0.6,0,1-0.4,1-1s-0.4-1-1-1h-5c-0.6,0-1,0.4-1,1s0.4,1,1,1H25z"/>
				<path id="Shape-9" class="st0" d="M33,22h-4c-0.6,0-1,0.4-1,1s0.4,1,1,1h4c0.6,0,1-0.4,1-1S33.6,22,33,22z"/>
				<path id="Shape-10" class="st0" d="M9.3,49c0.6,1,1.8,1.3,2.7,0.7l15.6-9c1-0.6,1.3-1.8,0.7-2.7l-3-5.2c-0.6-1-1.8-1.3-2.7-0.7
					c0,0,0,0,0,0L7,41.1c-1,0.6-1.3,1.8-0.7,2.7L9.3,49z M23.6,33.8l3,5.2L11,48l-3-5.2L23.6,33.8z"/>
				<path id="Shape-11" class="st0" d="M12.1,44.9c0.2,0,0.3,0,0.5-0.1l0.9-0.5c0.5-0.3,0.6-0.9,0.4-1.4s-0.9-0.6-1.4-0.4L11.6,43
					c-0.5,0.3-0.6,0.9-0.4,1.4C11.4,44.7,11.7,44.9,12.1,44.9z"/>
				<path id="Shape-12" class="st0" d="M16.4,42.4c0.2,0,0.3,0,0.5-0.1l6.1-3.5c0.5-0.3,0.6-0.9,0.4-1.4S22.5,36.8,22,37l0,0
					l-6.1,3.5c-0.5,0.3-0.6,0.9-0.4,1.4C15.7,42.2,16.1,42.4,16.4,42.4z"/>
				<path id="Shape-13" class="st0" d="M53,39h-5v-2c1.1,0,2-0.9,2-2v-2.6c0-0.6,0.3-1.1,0.7-1.5c3.8-3.2,4.4-8.8,1.2-12.7
					c-0.3-0.3-0.6-0.7-0.9-1c-0.3-0.3-0.6-0.5-1-0.8V9c0-2.4-1.7-4.5-4.1-4.9C45.5,1.7,43.4,0,41,0H14c-0.3,0-0.5,0.1-0.7,0.3
					l-13,13C0.1,13.5,0,13.7,0,14v37c0,2.4,1.7,4.5,4.1,4.9C4.5,58.3,6.6,60,9,60h36c2.8,0,5-2.2,5-5v-3h1c1.1,0,2-0.9,2-2v-3
					c1.7,0,3-1.3,3-3v-2C56,40.3,54.7,39,53,39z M46,39h-2v-2h2V39z M52,24c0,2.1-0.9,4.1-2.5,5.4c-0.9,0.7-1.4,1.8-1.5,3V35h-6
					v-2.6c0-1.2-0.6-2.3-1.5-3c-3-2.5-3.4-6.9-0.9-9.8c1.2-1.4,2.8-2.3,4.6-2.5c0.3,0,0.5,0,0.8,0c1.3,0,2.5,0.3,3.6,1l0,0
					c0.4,0.2,0.7,0.5,1.1,0.8C51.1,20.1,52,22,52,24z M48,9v6.5c-0.6-0.2-1.3-0.4-2-0.5V6.2C47.2,6.6,48,7.7,48,9z M13,3.4V10
					c0,1.7-1.3,3-3,3H3.4L13,3.4z M2,51V15h8c2.8,0,5-2.2,5-5V2h26c1.7,0,3,1.3,3,3v10.1h0c-4,0.5-7.2,3.5-7.9,7.5
					c-0.5,3.1,0.7,6.3,3.1,8.4c0.5,0.4,0.7,0.9,0.7,1.5V35c0,1.1,0.9,2,2,2v2h-5c-1.7,0-3,1.3-3,3v2c0,1.7,1.3,3,3,3v3
					c0,1.1,0.9,2,2,2h4.8c-0.4,1.2-1.5,2-2.8,2H5C3.3,54,2,52.7,2,51z M48,55c0,1.7-1.3,3-3,3l0,0H9c-1.3,0-2.4-0.8-2.8-2H41
					c2.4,0,4.4-1.7,4.9-4H48V55z M51,50H39v-3h12V50z M54,44c0,0.6-0.4,1-1,1H37c-0.6,0-1-0.4-1-1v-2c0-0.6,0.4-1,1-1h16
					c0.6,0,1,0.4,1,1V44z"/>
			</g>
		</g>
	</g>
</g>
</svg>
