<?xml version="1.0" encoding="utf-8"?>
<!-- Generator: Adobe Illustrator 22.0.0, SVG Export Plug-In . SVG Version: 6.00 Build 0)  -->
<svg version="1.1" id="Layer_1" xmlns="http://www.w3.org/2000/svg" xmlns:xlink="http://www.w3.org/1999/xlink" x="0px" y="0px"
	 viewBox="0 0 64 72" style="enable-background:new 0 0 64 72;" xml:space="preserve">
<style type="text/css">
	.st0{clip-path:url(#SVGID_2_);}
	.st1{fill:url(#left_1_);}
</style>
<g>
	<defs>
		<rect id="SVGID_1_" width="64" height="72"/>
	</defs>
	<clipPath id="SVGID_2_">
		<use xlink:href="#SVGID_1_"  style="overflow:visible;"/>
	</clipPath>
	<g id="QCB_Homepage_1.1_-_AR_7" class="st0">
		
			<linearGradient id="left_1_" gradientUnits="userSpaceOnUse" x1="-4852.0317" y1="354.8343" x2="-4851.0317" y2="354.8343" gradientTransform="matrix(43.2032 0 0 -43.2064 209634.1875 15367.9902)">
			<stop  offset="0" style="stop-color:#000000"/>
			<stop  offset="0.591" style="stop-color:#8F1537"/>
			<stop  offset="1" style="stop-color:#8F1537"/>
		</linearGradient>
		<path id="left" class="st1" d="M54.2,36.9c0,4.3-1.3,8.4-3.7,12c-0.6,0.7-1.6,0.9-2.4,0.3c-0.7-0.5-0.9-1.5-0.4-2.2
			c5.5-8.3,3.2-19.6-5.1-25.1S23.1,18.7,17.5,27s-3.2,19.6,5.1,25.1c5.8,3.9,13.4,4,19.4,0.4c0.8-0.5,1.8-0.2,2.3,0.6
			s0.2,1.8-0.6,2.3c-10.2,6.2-23.5,2.9-29.7-7.3s-2.9-23.5,7.3-29.7s23.5-2.9,29.7,7.3C53.1,29.1,54.2,32.9,54.2,36.9z M44.7,36.9
			c0-0.9-0.8-1.7-1.7-1.7l0,0H25.6l6.1-6.1c0.7-0.7,0.6-1.7,0-2.4c-0.7-0.6-1.7-0.6-2.4,0l-6.6,6.6c-2,2-2,5.2,0,7.1c0,0,0,0,0,0
			l6.6,6.6c0.7,0.7,1.7,0.7,2.4,0c0.7-0.7,0.7-1.7,0-2.4c0,0,0,0,0,0l-6.1-6.1h17.5C44,38.6,44.7,37.8,44.7,36.9
			C44.7,36.9,44.7,36.9,44.7,36.9L44.7,36.9z"/>
	</g>
</g>
</svg>
